HIERARCHY
ROOT hip
{
  OFFSET 0.00112043 5.09927 -9.65472
  CHANNELS 6 Xposition Yposition Zposition Zrotation Xrotation Yrotation
  JOINT abdomen
  {
    OFFSET 0 -1.186 -1.5018
    CHANNELS 3 Zrotation Xrotation Yrotation
    JOINT abdomen2
    {
      OFFSET 0 9.964 0.2134
      CHANNELS 3 Zrotation Xrotation Yrotation
      JOINT chest
      {
        OFFSET 0 13.134 -3.2573
        CHANNELS 3 Zrotation Xrotation Yrotation
        JOINT neck
        {
          OFFSET 0 20.686 -1.6905
          CHANNELS 3 Zrotation Xrotation Yrotation
          JOINT head
          {
            OFFSET 0 7.238 -0.1237
            CHANNELS 3 Zrotation Xrotation Yrotation
            End Site
            {
              OFFSET 0 0 0
            }
          }
        }
        JOINT lCollar
        {
          OFFSET 1.7069 20.075 5.0056
          CHANNELS 3 Zrotation Xrotation Yrotation
          JOINT lShldr
          {
            OFFSET 13.6458 -0.047 -4.849
            CHANNELS 3 Zrotation Xrotation Yrotation
            JOINT lForeArm
            {
              OFFSET 28.3255 -0.9759 2.2888
              CHANNELS 3 Zrotation Xrotation Yrotation
              JOINT lHand
              {
                OFFSET 22.1583 -0.53 10.8316
                CHANNELS 3 Zrotation Xrotation Yrotation
                JOINT lThumb1
                {
                  OFFSET 0.786 0.112 2.5817
                  CHANNELS 3 Zrotation Xrotation Yrotation
                  JOINT lThumb2
                  {
                    OFFSET 0.3601 -0.878 4.2331
                    CHANNELS 3 Zrotation Xrotation Yrotation
                    JOINT lThumb2_End
                    {
                      OFFSET 1.8127 -1.216 2.2227
                      CHANNELS 3 Zrotation Xrotation Yrotation
                      End Site
                      {
                        OFFSET 0.0181 -0.0122 0.0222
                      }
                    }
                  }
                }
                JOINT lCarpal1
                {
                  OFFSET 0.9571 1.114 1.7695
                  CHANNELS 3 Zrotation Xrotation Yrotation
                  JOINT lIndex1
                  {
                    OFFSET 4.1246 0.487 4.1451
                    CHANNELS 3 Zrotation Xrotation Yrotation
                    JOINT lIndex2
                    {
                      OFFSET 3.4052 -1.454 2.7682
                      CHANNELS 3 Zrotation Xrotation Yrotation
                      JOINT lIndex2_End
                      {
                        OFFSET 1.4531 -1.795 1.2713
                        CHANNELS 3 Zrotation Xrotation Yrotation
                        End Site
                        {
                          OFFSET 0.0145 -0.0179 0.0127
                        }
                      }
                    }
                  }
                  JOINT lMid1
                  {
                    OFFSET 5.6954 0.21 2.1184
                    CHANNELS 3 Zrotation Xrotation Yrotation
                    JOINT lMid2
                    {
                      OFFSET 3.9766 -1.54 2.3863
                      CHANNELS 3 Zrotation Xrotation Yrotation
                      JOINT lMid2_End
                      {
                        OFFSET 1.4042 -1.926 1.125
                        CHANNELS 3 Zrotation Xrotation Yrotation
                        End Site
                        {
                          OFFSET 0.014 -0.0193 0.0113
                        }
                      }
                    }
                  }
                }
                JOINT lCarpal2
                {
                  OFFSET 2.0956 0.66 -0.3894
                  CHANNELS 3 Zrotation Xrotation Yrotation
                  JOINT lRing1
                  {
                    OFFSET 5.0395 -0.09 2.4971
                    CHANNELS 3 Zrotation Xrotation Yrotation
                    JOINT lRing2
                    {
                      OFFSET 3.7921 -1.552 1.4806
                      CHANNELS 3 Zrotation Xrotation Yrotation
                      JOINT lRing2_End
                      {
                        OFFSET 1.4655 -1.808 0.9609
                        CHANNELS 3 Zrotation Xrotation Yrotation
                        End Site
                        {
                          OFFSET 0.0147 -0.0181 0.0096
                        }
                      }
                    }
                  }
                  JOINT lPinky1
                  {
                    OFFSET 4.9141 -1.269 0.3591
                    CHANNELS 3 Zrotation Xrotation Yrotation
                    JOINT lPinky2
                    {
                      OFFSET 3.1477 -1.685 0.8462
                      CHANNELS 3 Zrotation Xrotation Yrotation
                      JOINT lPinky2_End
                      {
                        OFFSET 0.8055 -1.585 0.7955
                        CHANNELS 3 Zrotation Xrotation Yrotation
                        End Site
                        {
                          OFFSET 0.0081 -0.0158 0.008
                        }
                      }
                    }
                  }
                }
              }
            }
          }
        }
        JOINT rCollar
        {
          OFFSET -1.7069 20.075 5.0056
          CHANNELS 3 Zrotation Xrotation Yrotation
          JOINT rShldr
          {
            OFFSET -13.6458 -0.047 -4.849
            CHANNELS 3 Zrotation Xrotation Yrotation
            JOINT rForeArm
            {
              OFFSET -28.3255 -0.9759 2.2888
              CHANNELS 3 Zrotation Xrotation Yrotation
              JOINT rHand
              {
                OFFSET -22.1583 -0.53 10.8316
                CHANNELS 3 Zrotation Xrotation Yrotation
                JOINT rThumb1
                {
                  OFFSET -0.786 0.112 2.5817
                  CHANNELS 3 Zrotation Xrotation Yrotation
                  JOINT rThumb2
                  {
                    OFFSET -0.3601 -0.878 4.2331
                    CHANNELS 3 Zrotation Xrotation Yrotation
                    JOINT rThumb2_End
                    {
                      OFFSET -1.8127 -1.216 2.2227
                      CHANNELS 3 Zrotation Xrotation Yrotation
                      End Site
                      {
                        OFFSET -0.0181 -0.0122 0.0222
                      }
                    }
                  }
                }
                JOINT rCarpal1
                {
                  OFFSET -0.9571 1.114 1.7695
                  CHANNELS 3 Zrotation Xrotation Yrotation
                  JOINT rIndex1
                  {
                    OFFSET -4.1246 0.487 4.1451
                    CHANNELS 3 Zrotation Xrotation Yrotation
                    JOINT rIndex2
                    {
                      OFFSET -3.4052 -1.454 2.7682
                      CHANNELS 3 Zrotation Xrotation Yrotation
                      JOINT rIndex2_End
                      {
                        OFFSET -1.4531 -1.795 1.2713
                        CHANNELS 3 Zrotation Xrotation Yrotation
                        End Site
                        {
                          OFFSET -0.0145 -0.018 0.0127
                        }
                      }
                    }
                  }
                  JOINT rMid1
                  {
                    OFFSET -5.6954 0.21 2.1184
                    CHANNELS 3 Zrotation Xrotation Yrotation
                    JOINT rMid2
                    {
                      OFFSET -3.9766 -1.54 2.3863
                      CHANNELS 3 Zrotation Xrotation Yrotation
                      JOINT rMid2_End
                      {
                        OFFSET -1.4042 -1.926 1.125
                        CHANNELS 3 Zrotation Xrotation Yrotation
                        End Site
                        {
                          OFFSET -0.014 -0.0193 0.0113
                        }
                      }
                    }
                  }
                }
                JOINT rCarpal2
                {
                  OFFSET -2.0956 0.66 -0.3894
                  CHANNELS 3 Zrotation Xrotation Yrotation
                  JOINT rRing1
                  {
                    OFFSET -5.0395 -0.09 2.4971
                    CHANNELS 3 Zrotation Xrotation Yrotation
                    JOINT rRing2
                    {
                      OFFSET -3.7921 -1.552 1.4806
                      CHANNELS 3 Zrotation Xrotation Yrotation
                      JOINT rRing2_End
                      {
                        OFFSET -1.4655 -1.808 0.9609
                        CHANNELS 3 Zrotation Xrotation Yrotation
                        End Site
                        {
                          OFFSET -0.0147 -0.0181 0.0096
                        }
                      }
                    }
                  }
                  JOINT rPinky1
                  {
                    OFFSET -4.9141 -1.269 0.3592
                    CHANNELS 3 Zrotation Xrotation Yrotation
                    JOINT rPinky2
                    {
                      OFFSET -3.1477 -1.685 0.8462
                      CHANNELS 3 Zrotation Xrotation Yrotation
                      JOINT rPinky2_End
                      {
                        OFFSET -0.8055 -1.585 0.7955
                        CHANNELS 3 Zrotation Xrotation Yrotation
                        End Site
                        {
                          OFFSET -0.0081 -0.0158 0.008
                        }
                      }
                    }
                  }
                }
              }
            }
          }
        }
      }
    }
  }
  JOINT lThigh
  {
    OFFSET 8.367 -8.2066 0.5982
    CHANNELS 3 Zrotation Xrotation Yrotation
    JOINT lShin
    {
      OFFSET 2.1923 -43.463 -0.4932
      CHANNELS 3 Zrotation Xrotation Yrotation
      JOINT lFoot
      {
        OFFSET 0.7333 -45.8593 -2.6451
        CHANNELS 3 Zrotation Xrotation Yrotation
        End Site
        {
          OFFSET 2.6618 -4.2699 12.3931
        }
      }
    }
  }
  JOINT rThigh
  {
    OFFSET -8.367 -8.2066 0.5982
    CHANNELS 3 Zrotation Xrotation Yrotation
    JOINT rShin
    {
      OFFSET -2.1923 -43.463 -0.4931
      CHANNELS 3 Zrotation Xrotation Yrotation
      JOINT rFoot
      {
        OFFSET -0.7333 -45.8593 -2.6451
        CHANNELS 3 Zrotation Xrotation Yrotation
        End Site
        {
          OFFSET -2.6618 -4.2699 12.3931
        }
      }
    }
  }
}
MOTION
Frames:	4
Frame Time:	0.0333333
-35.3367 6.33757 26.8621 34.6795 -83.9597 37.5473 -1.37486 9.35928 -0.433892 -2.73269 18.7262 -0.649746 -2.73269 18.7262 -0.649746 -0.0534375 6.30376 0.172809 0.180809 16.4162 13.5875 14.267 -1.37192 40.3139 -38.9112 11.2601 -6.51226 -47.3456 28.7122 1.36625 27.9698 43.6115 -7.26913 -1.42552e-007 3.72692e-007 1.49471e-007 1.05093e-006 -2.77747e-008 1.51662e-006 4.17959e-006 1.12673e-006 1.12077e-006 -1.59028e-015 1.27222e-014 -3.18055e-015 -1.42552e-007 3.72692e-007 1.49471e-007 1.05093e-006 -2.77747e-008 1.51662e-006 4.17959e-006 1.12673e-006 1.12077e-006 -1.42552e-007 3.72692e-007 1.49471e-007 1.05093e-006 -2.77747e-008 1.51662e-006 4.17959e-006 1.12673e-006 1.12077e-006 -1.59028e-015 1.27222e-014 -3.18055e-015 -1.42552e-007 3.72692e-007 1.49471e-007 1.05093e-006 -2.77747e-008 1.51662e-006 4.17959e-006 1.12673e-006 1.12077e-006 -1.42552e-007 3.72692e-007 1.49471e-007 1.05093e-006 -2.77747e-008 1.51662e-006 4.17959e-006 1.12673e-006 1.12077e-006 11.1786 -5.96728 3.0072 58.2981 -14.9309 -10.4271 2.27602 14.0461 49.9284 7.27673 3.25648 -6.35893 -1.76556e-031 6.36111e-015 1.59028e-015 1.59028e-015 1.98785e-016 -0 -3.18055e-015 1.39149e-015 3.18055e-015 7.95139e-016 6.16232e-015 -0 -7.95139e-016 9.34288e-015 1.59028e-015 1.59028e-015 2.78299e-015 1.59028e-015 -1.87591e-031 3.37934e-015 3.18055e-015 -7.95139e-016 9.34288e-015 1.59028e-015 1.59028e-015 2.78299e-015 1.59028e-015 -1.87591e-031 3.37934e-015 3.18055e-015 7.95139e-016 6.16232e-015 -0 -7.95139e-016 9.34288e-015 1.59028e-015 1.59028e-015 2.78299e-015 1.59028e-015 -1.87591e-031 3.37934e-015 3.18055e-015 -7.95139e-016 9.34288e-015 1.59028e-015 1.59028e-015 2.78299e-015 1.59028e-015 -1.87591e-031 3.37934e-015 3.18055e-015 4.80907 -26.3389 18.1405 23.9418 52.7466 -26.2378 4.50912 14.6948 -1.72314 -39.9017 -42.7865 -63.129 -166.601 65.9037 173.531 -8.47381 9.85925 -20.3448 
-35.3376 6.33761 26.8625 34.6795 -83.9597 37.5473 -1.37486 9.35928 -0.433892 -2.73269 18.7262 -0.649746 -2.73269 18.7262 -0.649746 -0.0534349 6.30381 0.17281 0.248439 16.3527 13.6633 14.267 -1.37192 40.3139 -38.9112 11.2601 -6.51226 -47.3456 28.7122 1.36625 27.9698 43.6115 -7.26913 -1.42552e-007 3.72692e-007 1.49471e-007 1.05093e-006 -2.77747e-008 1.51662e-006 4.17959e-006 1.12673e-006 1.12077e-006 -1.59028e-015 1.27222e-014 -3.18055e-015 -1.42552e-007 3.72692e-007 1.49471e-007 1.05093e-006 -2.77747e-008 1.51662e-006 4.17959e-006 1.12673e-006 1.12077e-006 -1.42552e-007 3.72692e-007 1.49471e-007 1.05093e-006 -2.77747e-008 1.51662e-006 4.17959e-006 1.12673e-006 1.12077e-006 -1.59028e-015 1.27222e-014 -3.18055e-015 -1.42552e-007 3.72692e-007 1.49471e-007 1.05093e-006 -2.77747e-008 1.51662e-006 4.17959e-006 1.12673e-006 1.12077e-006 -1.42552e-007 3.72692e-007 1.49471e-007 1.05093e-006 -2.77747e-008 1.51662e-006 4.17959e-006 1.12673e-006 1.12077e-006 11.1786 -5.96728 3.0072 58.3208 -14.9364 -10.3412 2.30439 14.137 49.93 7.33582 3.27987 -6.36258 -1.59028e-015 1.47101e-014 -1.59028e-015 1.59028e-015 1.47101e-014 3.18055e-015 7.95139e-016 2.16675e-014 -0 -1.59028e-015 1.39149e-015 -1.59028e-015 -3.18055e-015 1.37161e-014 -3.18055e-015 -7.95139e-016 1.64991e-014 3.18055e-015 4.77083e-015 2.34566e-014 -0 -3.18055e-015 1.37161e-014 -3.18055e-015 -7.95139e-016 1.64991e-014 3.18055e-015 4.77083e-015 2.34566e-014 -0 -1.59028e-015 1.39149e-015 -1.59028e-015 -3.18055e-015 1.37161e-014 -3.18055e-015 -7.95139e-016 1.64991e-014 3.18055e-015 4.77083e-015 2.34566e-014 -0 -3.18055e-015 1.37161e-014 -3.18055e-015 -7.95139e-016 1.64991e-014 3.18055e-015 4.77083e-015 2.34566e-014 -0 4.80979 -26.3389 18.1404 23.942 52.747 -26.2383 4.50845 14.6944 -1.72309 -39.968 -42.6955 -63.2477 -166.602 65.9026 173.535 -8.47006 9.86347 -20.3436 
-35.3386 6.33751 26.8629 34.6795 -83.9597 37.5473 -1.37486 9.35928 -0.433892 -2.73269 18.7262 -0.649746 -2.73269 18.7262 -0.649746 -0.0534662 6.30371 0.172813 0.316154 16.2893 13.7391 14.267 -1.37192 40.3139 -38.9112 11.2601 -6.51226 -47.3456 28.7122 1.36625 27.9698 43.6115 -7.26913 -1.42552e-007 3.72692e-007 1.49471e-007 1.05093e-006 -2.77747e-008 1.51662e-006 4.17959e-006 1.12673e-006 1.12077e-006 -1.59028e-015 1.27222e-014 -3.18055e-015 -1.42552e-007 3.72692e-007 1.49471e-007 1.05093e-006 -2.77747e-008 1.51662e-006 4.17959e-006 1.12673e-006 1.12077e-006 -1.42552e-007 3.72692e-007 1.49471e-007 1.05093e-006 -2.77747e-008 1.51662e-006 4.17959e-006 1.12673e-006 1.12077e-006 -1.59028e-015 1.27222e-014 -3.18055e-015 -1.42552e-007 3.72692e-007 1.49471e-007 1.05093e-006 -2.77747e-008 1.51662e-006 4.17959e-006 1.12673e-006 1.12077e-006 -1.42552e-007 3.72692e-007 1.49471e-007 1.05093e-006 -2.77747e-008 1.51662e-006 4.17959e-006 1.12673e-006 1.12077e-006 11.1786 -5.96728 3.0072 58.3435 -14.9418 -10.2553 2.33278 14.2279 49.9315 7.39488 3.30328 -6.3663 4.13598e-007 1.8283e-006 1.26678e-006 7.95139e-016 5.96354e-015 -0 -4.13598e-007 -1.8283e-006 -1.26678e-006 -1.54487e-031 5.56597e-015 1.59028e-015 4.13598e-007 1.8283e-006 1.26678e-006 -1.59028e-015 0 -0 -4.13598e-007 -1.8283e-006 -1.26678e-006 4.13598e-007 1.8283e-006 1.26678e-006 -1.59028e-015 0 -0 -4.13598e-007 -1.8283e-006 -1.26678e-006 -1.54487e-031 5.56597e-015 1.59028e-015 4.13598e-007 1.8283e-006 1.26678e-006 -1.59028e-015 0 -0 -4.13598e-007 -1.8283e-006 -1.26678e-006 4.13598e-007 1.8283e-006 1.26678e-006 -1.59028e-015 0 -0 -4.13598e-007 -1.8283e-006 -1.26678e-006 4.81031 -26.3406 18.1402 23.9437 52.7487 -26.2398 4.50773 14.6941 -1.72303 -40.0557 -42.5881 -63.3971 -166.603 65.9015 173.538 -8.46564 9.86809 -20.3423 
-35.3394 6.33768 26.8634 34.6795 -83.9597 37.5473 -1.37486 9.35928 -0.43389 -2.73269 18.7262 -0.649746 -2.73269 18.7262 -0.649746 -0.0534139 6.30372 0.172807 0.383949 16.226 13.8151 14.267 -1.37191 40.3139 -38.9112 11.2601 -6.51226 -47.3456 28.7122 1.36624 27.9698 43.6115 -7.26913 -1.42552e-007 3.72692e-007 1.49472e-007 3.64956e-006 7.53839e-007 8.15916e-007 1.86608e-006 -4.00271e-007 1.52253e-006 -7.95139e-015 0 3.18055e-015 -1.42552e-007 3.72692e-007 1.49472e-007 3.64956e-006 7.53839e-007 8.15916e-007 1.86608e-006 -4.00271e-007 1.52253e-006 -1.42552e-007 3.72692e-007 1.49472e-007 3.64956e-006 7.53839e-007 8.15916e-007 1.86608e-006 -4.00271e-007 1.52253e-006 -7.95139e-015 0 3.18055e-015 -1.42552e-007 3.72692e-007 1.49472e-007 3.64956e-006 7.53839e-007 8.15916e-007 1.86608e-006 -4.00271e-007 1.52253e-006 -1.42552e-007 3.72692e-007 1.49472e-007 3.64956e-006 7.53839e-007 8.15916e-007 1.86608e-006 -4.00271e-007 1.52253e-006 11.1786 -5.96728 3.0072 58.3662 -14.9471 -10.1694 2.36117 14.3188 49.9331 7.45397 3.32669 -6.37 -5.56597e-015 -1.03368e-014 -9.54166e-015 -2.38542e-015 -8.74653e-015 -1.11319e-014 -1.59028e-015 -7.15625e-015 -1.11319e-014 -1.59028e-015 3.57812e-015 1.59028e-015 -1.03368e-014 1.49089e-014 -6.36111e-015 -2.38542e-015 -1.31198e-014 -9.54166e-015 -3.18055e-015 -5.96354e-015 -1.11319e-014 -1.03368e-014 1.49089e-014 -6.36111e-015 -2.38542e-015 -1.31198e-014 -9.54166e-015 -3.18055e-015 -5.96354e-015 -1.11319e-014 -1.59028e-015 3.57812e-015 1.59028e-015 -1.03368e-014 1.49089e-014 -6.36111e-015 -2.38542e-015 -1.31198e-014 -9.54166e-015 -3.18055e-015 -5.96354e-015 -1.11319e-014 -1.03368e-014 1.49089e-014 -6.36111e-015 -2.38542e-015 -1.31198e-014 -9.54166e-015 -3.18055e-015 -5.96354e-015 -1.11319e-014 4.81099 -26.3404 18.1401 23.9438 52.7489 -26.2402 4.50714 14.6937 -1.72298 -40.0988 -42.514 -63.4836 -166.604 65.9005 173.541 -8.46256 9.87202 -20.3414 
